<mxfile host="Electron" modified="2024-01-03T18:42:17.122Z" agent="Mozilla/5.0 (Windows NT 10.0; Win64; x64) AppleWebKit/537.36 (KHTML, like Gecko) draw.io/22.1.16 Chrome/120.0.6099.109 Electron/28.1.0 Safari/537.36" etag="R0usq33CMMkHY7shGncQ" version="22.1.16" type="device">
  <diagram name="StrÃ¡nka-1" id="YqRgB6bF7ps_heDAT-wN">
    <mxGraphModel dx="1434" dy="844" grid="1" gridSize="10" guides="1" tooltips="1" connect="1" arrows="1" fold="1" page="1" pageScale="1" pageWidth="827" pageHeight="1169" math="0" shadow="0">
      <root>
        <mxCell id="0" />
        <mxCell id="1" parent="0" />
        <mxCell id="K76wG6FOY4topmR0PgGp-7" value="" style="rounded=0;whiteSpace=wrap;html=1;dashed=1;fillColor=none;movable=0;resizable=0;rotatable=0;deletable=0;editable=0;locked=1;connectable=0;" parent="1" vertex="1">
          <mxGeometry x="120" y="220" width="510" height="420" as="geometry" />
        </mxCell>
        <mxCell id="K76wG6FOY4topmR0PgGp-6" value="8 bits" style="edgeStyle=orthogonalEdgeStyle;rounded=0;orthogonalLoop=1;jettySize=auto;html=1;exitX=0.5;exitY=0;exitDx=0;exitDy=0;startArrow=classic;startFill=1;endArrow=none;endFill=0;" parent="1" source="K76wG6FOY4topmR0PgGp-5" edge="1">
          <mxGeometry relative="1" as="geometry">
            <mxPoint x="380" y="70" as="targetPoint" />
          </mxGeometry>
        </mxCell>
        <mxCell id="K76wG6FOY4topmR0PgGp-5" value="IP" style="rounded=0;whiteSpace=wrap;html=1;fillColor=#1ba1e2;fontColor=#ffffff;strokeColor=#006EAF;" parent="1" vertex="1">
          <mxGeometry x="320" y="140" width="120" height="60" as="geometry" />
        </mxCell>
        <mxCell id="K76wG6FOY4topmR0PgGp-8" value="" style="endArrow=none;html=1;rounded=0;exitX=0.5;exitY=1;exitDx=0;exitDy=0;" parent="1" source="K76wG6FOY4topmR0PgGp-5" edge="1">
          <mxGeometry width="50" height="50" relative="1" as="geometry">
            <mxPoint x="390" y="380" as="sourcePoint" />
            <mxPoint x="380" y="240" as="targetPoint" />
          </mxGeometry>
        </mxCell>
        <mxCell id="K76wG6FOY4topmR0PgGp-28" style="edgeStyle=orthogonalEdgeStyle;rounded=0;orthogonalLoop=1;jettySize=auto;html=1;exitX=0.5;exitY=1;exitDx=0;exitDy=0;entryX=0.5;entryY=0;entryDx=0;entryDy=0;" parent="1" source="K76wG6FOY4topmR0PgGp-9" target="K76wG6FOY4topmR0PgGp-11" edge="1">
          <mxGeometry relative="1" as="geometry" />
        </mxCell>
        <mxCell id="K76wG6FOY4topmR0PgGp-9" value="EP" style="rounded=0;whiteSpace=wrap;html=1;fillColor=#647687;fontColor=#ffffff;strokeColor=#314354;" parent="1" vertex="1">
          <mxGeometry x="320" y="270" width="120" height="60" as="geometry" />
        </mxCell>
        <mxCell id="K76wG6FOY4topmR0PgGp-23" style="edgeStyle=orthogonalEdgeStyle;rounded=0;orthogonalLoop=1;jettySize=auto;html=1;exitX=0.5;exitY=1;exitDx=0;exitDy=0;entryX=0.5;entryY=0;entryDx=0;entryDy=0;" parent="1" source="K76wG6FOY4topmR0PgGp-11" target="K76wG6FOY4topmR0PgGp-12" edge="1">
          <mxGeometry relative="1" as="geometry">
            <Array as="points">
              <mxPoint x="380" y="390" />
              <mxPoint x="310" y="390" />
            </Array>
          </mxGeometry>
        </mxCell>
        <mxCell id="K76wG6FOY4topmR0PgGp-34" value="4bits" style="edgeLabel;html=1;align=center;verticalAlign=middle;resizable=0;points=[];" parent="K76wG6FOY4topmR0PgGp-23" vertex="1" connectable="0">
          <mxGeometry x="-0.08" relative="1" as="geometry">
            <mxPoint as="offset" />
          </mxGeometry>
        </mxCell>
        <mxCell id="K76wG6FOY4topmR0PgGp-24" style="edgeStyle=orthogonalEdgeStyle;rounded=0;orthogonalLoop=1;jettySize=auto;html=1;exitX=0.5;exitY=1;exitDx=0;exitDy=0;" parent="1" source="K76wG6FOY4topmR0PgGp-11" target="K76wG6FOY4topmR0PgGp-13" edge="1">
          <mxGeometry relative="1" as="geometry">
            <Array as="points">
              <mxPoint x="380" y="390" />
              <mxPoint x="460" y="390" />
            </Array>
          </mxGeometry>
        </mxCell>
        <mxCell id="K76wG6FOY4topmR0PgGp-35" value="4bits" style="edgeLabel;html=1;align=center;verticalAlign=middle;resizable=0;points=[];" parent="K76wG6FOY4topmR0PgGp-24" vertex="1" connectable="0">
          <mxGeometry y="-2" relative="1" as="geometry">
            <mxPoint x="-5" y="-2" as="offset" />
          </mxGeometry>
        </mxCell>
        <mxCell id="K76wG6FOY4topmR0PgGp-11" value="" style="shape=orEllipse;perimeter=ellipsePerimeter;whiteSpace=wrap;html=1;backgroundOutline=1;" parent="1" vertex="1">
          <mxGeometry x="370" y="360" width="20" height="20" as="geometry" />
        </mxCell>
        <mxCell id="K76wG6FOY4topmR0PgGp-30" style="edgeStyle=orthogonalEdgeStyle;rounded=0;orthogonalLoop=1;jettySize=auto;html=1;exitX=0.5;exitY=1;exitDx=0;exitDy=0;entryX=0.5;entryY=0;entryDx=0;entryDy=0;" parent="1" source="K76wG6FOY4topmR0PgGp-12" target="K76wG6FOY4topmR0PgGp-14" edge="1">
          <mxGeometry relative="1" as="geometry" />
        </mxCell>
        <mxCell id="K76wG6FOY4topmR0PgGp-33" value="2bits" style="edgeLabel;html=1;align=center;verticalAlign=middle;resizable=0;points=[];" parent="K76wG6FOY4topmR0PgGp-30" vertex="1" connectable="0">
          <mxGeometry x="-0.7818" y="1" relative="1" as="geometry">
            <mxPoint x="-21" as="offset" />
          </mxGeometry>
        </mxCell>
        <mxCell id="K76wG6FOY4topmR0PgGp-12" value="S0" style="rounded=0;whiteSpace=wrap;html=1;fillColor=#f5f5f5;strokeColor=#666666;fontColor=#333333;" parent="1" vertex="1">
          <mxGeometry x="270" y="410" width="80" height="40" as="geometry" />
        </mxCell>
        <mxCell id="K76wG6FOY4topmR0PgGp-31" style="edgeStyle=orthogonalEdgeStyle;rounded=0;orthogonalLoop=1;jettySize=auto;html=1;exitX=0.5;exitY=1;exitDx=0;exitDy=0;" parent="1" source="K76wG6FOY4topmR0PgGp-13" edge="1">
          <mxGeometry relative="1" as="geometry">
            <mxPoint x="380" y="490" as="targetPoint" />
          </mxGeometry>
        </mxCell>
        <mxCell id="K76wG6FOY4topmR0PgGp-32" value="2bits" style="edgeLabel;html=1;align=center;verticalAlign=middle;resizable=0;points=[];" parent="K76wG6FOY4topmR0PgGp-31" vertex="1" connectable="0">
          <mxGeometry x="-0.431" y="1" relative="1" as="geometry">
            <mxPoint x="34" y="-11" as="offset" />
          </mxGeometry>
        </mxCell>
        <mxCell id="K76wG6FOY4topmR0PgGp-13" value="S1" style="rounded=0;whiteSpace=wrap;html=1;fillColor=#f5f5f5;strokeColor=#666666;fontColor=#333333;" parent="1" vertex="1">
          <mxGeometry x="420" y="410" width="80" height="40" as="geometry" />
        </mxCell>
        <mxCell id="K76wG6FOY4topmR0PgGp-19" value="" style="edgeStyle=orthogonalEdgeStyle;rounded=0;orthogonalLoop=1;jettySize=auto;html=1;" parent="1" source="K76wG6FOY4topmR0PgGp-14" target="K76wG6FOY4topmR0PgGp-15" edge="1">
          <mxGeometry relative="1" as="geometry" />
        </mxCell>
        <mxCell id="K76wG6FOY4topmR0PgGp-37" value="4 bits" style="edgeLabel;html=1;align=center;verticalAlign=middle;resizable=0;points=[];" parent="K76wG6FOY4topmR0PgGp-19" vertex="1" connectable="0">
          <mxGeometry x="0.5491" relative="1" as="geometry">
            <mxPoint x="20" y="-3" as="offset" />
          </mxGeometry>
        </mxCell>
        <mxCell id="K76wG6FOY4topmR0PgGp-14" value="P4" style="rounded=0;whiteSpace=wrap;html=1;fillColor=#fa6800;fontColor=#000000;strokeColor=#C73500;" parent="1" vertex="1">
          <mxGeometry x="320" y="490" width="120" height="60" as="geometry" />
        </mxCell>
        <mxCell id="K76wG6FOY4topmR0PgGp-39" style="edgeStyle=orthogonalEdgeStyle;rounded=0;orthogonalLoop=1;jettySize=auto;html=1;exitX=0.5;exitY=1;exitDx=0;exitDy=0;entryX=0.25;entryY=0;entryDx=0;entryDy=0;" parent="1" source="K76wG6FOY4topmR0PgGp-15" target="K76wG6FOY4topmR0PgGp-16" edge="1">
          <mxGeometry relative="1" as="geometry">
            <Array as="points">
              <mxPoint x="380" y="620" />
              <mxPoint x="470" y="620" />
            </Array>
          </mxGeometry>
        </mxCell>
        <mxCell id="K76wG6FOY4topmR0PgGp-15" value="" style="shape=orEllipse;perimeter=ellipsePerimeter;whiteSpace=wrap;html=1;backgroundOutline=1;" parent="1" vertex="1">
          <mxGeometry x="370" y="575" width="20" height="20" as="geometry" />
        </mxCell>
        <mxCell id="K76wG6FOY4topmR0PgGp-40" style="edgeStyle=orthogonalEdgeStyle;rounded=0;orthogonalLoop=1;jettySize=auto;html=1;exitX=0.25;exitY=1;exitDx=0;exitDy=0;" parent="1" source="K76wG6FOY4topmR0PgGp-16" edge="1">
          <mxGeometry relative="1" as="geometry">
            <mxPoint x="469.8965517241379" y="780" as="targetPoint" />
          </mxGeometry>
        </mxCell>
        <mxCell id="K76wG6FOY4topmR0PgGp-41" style="edgeStyle=orthogonalEdgeStyle;rounded=0;orthogonalLoop=1;jettySize=auto;html=1;exitX=0.75;exitY=1;exitDx=0;exitDy=0;" parent="1" source="K76wG6FOY4topmR0PgGp-16" edge="1">
          <mxGeometry relative="1" as="geometry">
            <mxPoint x="529.8965517241379" y="780" as="targetPoint" />
          </mxGeometry>
        </mxCell>
        <mxCell id="K76wG6FOY4topmR0PgGp-16" value="SW" style="rounded=0;whiteSpace=wrap;html=1;fillColor=#a20025;fontColor=#ffffff;strokeColor=#6F0000;" parent="1" vertex="1">
          <mxGeometry x="440" y="680" width="120" height="60" as="geometry" />
        </mxCell>
        <mxCell id="K76wG6FOY4topmR0PgGp-17" value="" style="endArrow=classic;html=1;rounded=0;entryX=0.75;entryY=0;entryDx=0;entryDy=0;" parent="1" target="K76wG6FOY4topmR0PgGp-16" edge="1">
          <mxGeometry width="50" height="50" relative="1" as="geometry">
            <mxPoint x="380" y="240" as="sourcePoint" />
            <mxPoint x="440" y="330" as="targetPoint" />
            <Array as="points">
              <mxPoint x="610" y="240" />
              <mxPoint x="610" y="620" />
              <mxPoint x="570" y="620" />
              <mxPoint x="530" y="620" />
            </Array>
          </mxGeometry>
        </mxCell>
        <mxCell id="K76wG6FOY4topmR0PgGp-18" value="" style="endArrow=classic;html=1;rounded=0;entryX=0;entryY=0.5;entryDx=0;entryDy=0;" parent="1" target="K76wG6FOY4topmR0PgGp-15" edge="1">
          <mxGeometry width="50" height="50" relative="1" as="geometry">
            <mxPoint x="380" y="240" as="sourcePoint" />
            <mxPoint x="440" y="330" as="targetPoint" />
            <Array as="points">
              <mxPoint x="160" y="240" />
              <mxPoint x="160" y="585" />
            </Array>
          </mxGeometry>
        </mxCell>
        <mxCell id="K76wG6FOY4topmR0PgGp-38" value="4 bits" style="edgeLabel;html=1;align=center;verticalAlign=middle;resizable=0;points=[];" parent="K76wG6FOY4topmR0PgGp-18" vertex="1" connectable="0">
          <mxGeometry x="0.9375" y="-1" relative="1" as="geometry">
            <mxPoint x="-16" y="-1" as="offset" />
          </mxGeometry>
        </mxCell>
        <mxCell id="K76wG6FOY4topmR0PgGp-25" value="" style="endArrow=classic;html=1;rounded=0;entryX=1;entryY=0.5;entryDx=0;entryDy=0;" parent="1" target="K76wG6FOY4topmR0PgGp-11" edge="1">
          <mxGeometry width="50" height="50" relative="1" as="geometry">
            <mxPoint x="660" y="370" as="sourcePoint" />
            <mxPoint x="440" y="330" as="targetPoint" />
          </mxGeometry>
        </mxCell>
        <mxCell id="K76wG6FOY4topmR0PgGp-29" value="Key (8 bits)" style="edgeLabel;html=1;align=center;verticalAlign=middle;resizable=0;points=[];" parent="K76wG6FOY4topmR0PgGp-25" vertex="1" connectable="0">
          <mxGeometry x="-0.8593" y="-1" relative="1" as="geometry">
            <mxPoint x="-91" y="-9" as="offset" />
          </mxGeometry>
        </mxCell>
        <mxCell id="K76wG6FOY4topmR0PgGp-26" value="" style="endArrow=classic;html=1;rounded=0;entryX=0.5;entryY=0;entryDx=0;entryDy=0;" parent="1" target="K76wG6FOY4topmR0PgGp-9" edge="1">
          <mxGeometry width="50" height="50" relative="1" as="geometry">
            <mxPoint x="610" y="250" as="sourcePoint" />
            <mxPoint x="440" y="330" as="targetPoint" />
            <Array as="points">
              <mxPoint x="380" y="250" />
            </Array>
          </mxGeometry>
        </mxCell>
        <mxCell id="K76wG6FOY4topmR0PgGp-27" value="4 bits" style="edgeLabel;html=1;align=center;verticalAlign=middle;resizable=0;points=[];" parent="K76wG6FOY4topmR0PgGp-26" vertex="1" connectable="0">
          <mxGeometry x="0.624" y="-1" relative="1" as="geometry">
            <mxPoint as="offset" />
          </mxGeometry>
        </mxCell>
      </root>
    </mxGraphModel>
  </diagram>
</mxfile>
